<svg xmlns="http://www.w3.org/2000/svg" version="1.1" xmlns:xlink="http://www.w3.org/1999/xlink" viewBox="0 0 200 200"><rect width="200" height="200" fill="url('#gradient')"></rect><defs><linearGradient id="gradient" gradientTransform="rotate(45 0.5 0.5)"><stop offset="0%" stop-color="#b0bea6"></stop><stop offset="100%" stop-color="#cdb891"></stop></linearGradient></defs><g><g fill="#2c3448" transform="matrix(2.596250842886042,0,0,2.596250842886042,6.078871114391461,119.21459937843534)" stroke="#27354b" stroke-width="0"><path d="M9.98 0L9.15-2.66L4.45-2.66L3.63 0L-0.03 0L5.19-14.22L8.41-14.22L13.66 0L9.98 0ZM6.80-10.23L5.27-5.30L8.33-5.30L6.80-10.23ZM14.92-13.19L18.21-13.19L18.21-10.57L19.95-10.57L19.95-8.28L18.21-8.28L18.21-3.45Q18.21-2.85 18.43-2.62Q18.64-2.38 19.28-2.38L19.28-2.38Q19.77-2.38 20.10-2.44L20.10-2.44L20.10-0.09Q19.21 0.20 18.24 0.20L18.24 0.20Q16.54 0.20 15.73-0.61Q14.92-1.41 14.92-3.04L14.92-3.04L14.92-8.28L13.57-8.28L13.57-10.57L14.92-10.57L14.92-13.19ZM24.46-15L24.46-9.43Q25.52-10.76 27.16-10.76L27.16-10.76Q28.91-10.76 29.79-9.73Q30.68-8.69 30.70-6.67L30.70-6.67L30.70 0L27.40 0L27.40-6.59Q27.40-7.43 27.06-7.83Q26.72-8.22 25.90-8.22L25.90-8.22Q24.88-8.22 24.46-7.58L24.46-7.58L24.46 0L21.17 0L21.17-15L24.46-15ZM37.65 0.20L37.65 0.20Q35.21 0.20 33.71-1.25Q32.21-2.71 32.21-5.03L32.21-5.03L32.21-5.30Q32.21-6.92 32.81-8.16Q33.41-9.40 34.56-10.08Q35.71-10.76 37.29-10.76L37.29-10.76Q39.52-10.76 40.81-9.38Q42.10-8.00 42.10-5.53L42.10-5.53L42.10-4.25L35.56-4.25Q35.73-3.36 36.33-2.85Q36.92-2.34 37.87-2.34L37.87-2.34Q39.43-2.34 40.31-3.44L40.31-3.44L41.82-1.66Q41.20-0.81 40.07-0.31Q38.95 0.20 37.65 0.20ZM37.28-8.22L37.28-8.22Q35.83-8.22 35.56-6.31L35.56-6.31L38.88-6.31L38.88-6.56Q38.90-7.35 38.48-7.79Q38.06-8.22 37.28-8.22ZM43.36-10.57L46.45-10.57L46.55-9.33Q47.65-10.76 49.57-10.76L49.57-10.76Q51.22-10.76 52.04-9.78Q52.85-8.79 52.88-6.81L52.88-6.81L52.88 0L49.58 0L49.58-6.67Q49.58-7.47 49.26-7.85Q48.94-8.22 48.09-8.22L48.09-8.22Q47.12-8.22 46.65-7.46L46.65-7.46L46.65 0L43.36 0L43.36-10.57ZM54.30-4.82L54.29-5.38Q54.29-6.96 54.90-8.20Q55.52-9.43 56.67-10.10Q57.82-10.76 59.38-10.76L59.38-10.76Q61.75-10.76 63.12-9.29Q64.48-7.82 64.48-5.29L64.48-5.29L64.48-5.18Q64.48-2.71 63.11-1.25Q61.74 0.20 59.39 0.20L59.39 0.20Q57.14 0.20 55.77-1.16Q54.40-2.51 54.30-4.82L54.30-4.82ZM57.59-5.77L57.58-5.18Q57.58-3.71 58.04-3.03Q58.50-2.34 59.39-2.34L59.39-2.34Q61.15-2.34 61.19-5.05L61.19-5.05L61.19-5.38Q61.19-8.22 59.38-8.22L59.38-8.22Q57.72-8.22 57.59-5.77L57.59-5.77ZM72.38-10.64L72.32-7.59L71.24-7.67Q69.69-7.67 69.25-6.69L69.25-6.69L69.25 0L65.96 0L65.96-10.57L69.04-10.57L69.15-9.21Q69.98-10.76 71.46-10.76L71.46-10.76Q71.99-10.76 72.38-10.64L72.38-10.64Z"></path></g></g></svg>